<?xml version="1.0"?>
<svg version="1.1" xmlns="http://www.w3.org/2000/svg" width="400px" height="200px" style="border: dashed 2px #aaa"><path fill="#000000" d="M121.044,113.748c0,0.252-0.112,0.42-0.448,0.56c-1.848,0.756-3.528,1.148-5.572,1.148c-5.908,0-8.792-4.172-8.792-9.94c0-5.74,3.444-10.136,9.072-10.136c1.932,0,3.668,0.392,5.264,1.176c0.336,0.168,0.448,0.308,0.448,0.476c0,0.112-0.028,0.224-0.084,0.364l-0.644,1.764c-0.084,0.252-0.224,0.364-0.392,0.364c-0.084,0-0.196-0.056-0.308-0.112c-1.4-0.728-2.66-1.008-4.06-1.008c-3.892,0-5.404,3.584-5.404,6.972c0,4.312,2.016,7.056,5.46,7.056c1.344,0,2.716-0.308,4.032-0.896c0.14-0.056,0.252-0.112,0.336-0.112c0.196,0,0.336,0.14,0.448,0.42l0.56,1.512c0.056,0.14,0.084,0.28,0.084,0.392z M137.802,108.316c0,4.032-2.464,7.14-6.832,7.14c-4.564,0-6.664-3.08-6.664-7.168c0-4.032,2.464-7.112,6.832-7.112c4.564,0,6.664,3.024,6.664,7.14z M134.302,108.316c0-2.296-0.728-4.48-3.192-4.48c-2.492,0-3.304,2.156-3.304,4.396c0,2.296,0.7,4.564,3.192,4.564c2.464,0,3.304-2.184,3.304-4.48z M162.456,114.42c0,0.504-0.196,0.7-0.672,0.7l-1.96,0c-0.504,0-0.728-0.196-0.728-0.7l0-7.672c0-1.512-0.392-2.66-2.1-2.66c-1.064,0-2.296,0.56-3.164,1.26c0.056,0.252,0.112,4.004,0.112,4.396l0,4.676c0,0.504-0.196,0.7-0.672,0.7l-1.848,0c-0.504,0-0.728-0.196-0.728-0.7l0-7.672c0-1.484-0.308-2.66-2.016-2.66c-1.092,0-2.212,0.616-3.108,1.4l0,8.932c0,0.504-0.224,0.7-0.7,0.7l-1.96,0c-0.504,0-0.728-0.196-0.728-0.7l0-12.236c0-0.448,0.252-0.644,0.672-0.644l1.82,0c0.42,0,0.672,0.14,0.7,0.532l0.028,0.7c1.148-1.008,2.66-1.596,4.116-1.596c1.708,0,2.912,0.756,3.556,1.82c1.26-1.204,3.08-1.82,4.788-1.82c2.044,0,3.332,1.008,3.92,2.1c0.532,1.036,0.672,2.268,0.672,4.06l0,7.084z M180.53,108.148c0,2.128-0.644,4.06-1.82,5.432c-1.036,1.176-2.492,1.904-4.312,1.904c-1.288,0-2.576-0.476-3.388-1.316l0,6.272c0,0.56-0.252,0.728-0.728,0.728l-1.96,0c-0.448,0-0.672-0.252-0.672-0.728l0-18.256c0-0.476,0.224-0.644,0.672-0.644l1.68,0c0.476,0,0.728,0.112,0.756,0.532l0.028,0.756c0.812-0.924,2.408-1.624,3.92-1.624c1.848,0,3.136,0.7,4.06,1.708c1.204,1.316,1.764,3.276,1.764,5.236z M177.002,108.316c0-1.316-0.252-2.464-0.812-3.248c-0.532-0.756-1.316-1.148-2.296-1.148c-1.036,0-2.324,0.672-2.884,1.372l0,6.104c0.56,0.756,1.68,1.372,2.744,1.372c0.98,0,1.764-0.448,2.24-1.036c0.7-0.868,1.008-2.044,1.008-3.416z M198.1,114.588c0,0.336-0.224,0.532-0.56,0.532l-1.344,0c-1.456,0-2.1-0.7-2.296-1.652l-0.056,0c-0.7,1.036-2.52,1.988-4.06,1.988c-3.948,0-5.74-3.248-5.74-6.888c0-4.844,2.912-7.392,6.048-7.392c1.484,0,2.884,0.672,3.584,1.624l0.056-0.756c0.028-0.308,0.252-0.504,0.588-0.504l1.96,0c0.364,0,0.588,0.196,0.588,0.616l0,9.716c0,0.392,0.056,0.672,0.168,0.812c0.084,0.084,0.196,0.112,0.336,0.112l0.224,0c0.336,0,0.504,0.112,0.504,0.476l0,1.316z M193.48,110.78l0-5.404c-0.56-0.812-1.708-1.428-2.772-1.428c-1.708,0-3.164,1.456-3.164,4.396c0,2.352,0.896,4.34,2.968,4.34c1.372,0,2.548-1.036,2.968-1.904z M214.382,114.392c0,0.476-0.168,0.728-0.672,0.728l-2.016,0c-0.504,0-0.672-0.252-0.672-0.728l0-7.616c0-1.54-0.42-2.632-2.128-2.632c-1.092,0-2.436,0.588-3.304,1.344l0,8.932c0,0.476-0.196,0.7-0.672,0.7l-2.044,0c-0.42,0-0.672-0.224-0.672-0.672l0-12.208c0-0.448,0.196-0.7,0.7-0.7l1.82,0c0.392,0,0.644,0.112,0.672,0.532l0.028,0.728c1.288-1.036,2.912-1.624,4.536-1.624c3.136,0,4.424,1.96,4.424,5.012l0,8.204z M231.84,101.932c0,0.084-0.028,0.168-0.056,0.28l-5.516,14.504c-1.26,3.332-2.828,4.508-6.188,4.508c-0.532,0-1.008-0.028-1.484-0.14c-0.308-0.056-0.42-0.224-0.42-0.476c0-0.084,0.028-0.14,0.028-0.252l0.196-1.456c0.056-0.364,0.196-0.504,0.504-0.504l0.168,0c0.336,0.028,0.672,0.084,0.952,0.084c1.736,0,2.464-0.616,3.024-1.932l0.532-1.26l-5.096-13.132c-0.028-0.084-0.056-0.14-0.056-0.224c0-0.224,0.168-0.392,0.42-0.392l2.688,0c0.392,0,0.588,0.196,0.7,0.476l3.108,9.268l2.94-9.1c0.14-0.448,0.364-0.644,0.84-0.644l2.268,0c0.28,0,0.448,0.168,0.448,0.392z"/><path fill="#0c1b26" d="M251.82,105.22l-6.21,0c0,1.98,1.062,3.24,2.61,3.24c1.8,0,3.024-0.99,3.024-0.99l0.63,0.936s-1.674,1.494-3.834,1.494c-2.88,0-4.32-1.89-4.32-4.86c0-2.88,1.8-5.04,4.41-5.04s3.78,1.53,3.78,4.23c0,0.45-0.09,0.954-0.09,0.99z M245.682,103.87l4.32,0c0-1.35-0.522-2.466-1.962-2.466s-2.25,1.116-2.358,2.466z M256.0428,106.84l0.198,1.548s0.54,0.162,1.512,0.162c1.08,0,2.034-0.306,2.034-1.422c0-1.944-5.022-1.044-5.022-4.32c0-1.872,1.44-2.808,3.294-2.808c1.422,0,3.078,0.54,3.078,0.54l-0.054,2.43l-1.17,0l-0.288-1.404s-0.558-0.216-1.458-0.216c-0.918,0-1.602,0.288-1.602,1.206c0,1.926,5.022,1.188,5.022,4.266c0,2.07-1.8,3.078-3.96,3.078c-1.656,0-2.844-0.396-2.844-0.396l0-2.664l1.26,0z M270.2016,100.27l0,1.35l-2.61,0l0,5.778c0,0.828,0.396,1.098,0.9,1.098c0.432,0,0.936-0.198,1.404-0.45l0.486,0.954c-0.81,0.594-1.62,0.9-2.52,0.9c-1.08,0-2.07-0.594-2.07-2.61l0-5.67l-1.8,0l0-1.17l1.8-0.18l0-2.268l1.8-0.36l0,2.628l2.61,0z M273.1464,108.64c0-0.81,0.54-1.26,1.17-1.26c0.72,0,1.17,0.45,1.17,1.26s-0.54,1.26-1.17,1.26c-0.72,0-1.17-0.45-1.17-1.26z M284.076,109.72l0-1.53c4.23-3.78,6.21-5.67,6.21-7.65c0-1.26-0.9-2.07-2.43-2.07c-0.99,0-1.89,0.36-1.89,0.36l-0.18,1.71l-1.44,0l-0.09-2.88s1.98-0.72,3.69-0.72c2.7,0,4.32,0.9,4.32,3.42c0,2.34-1.8,4.41-5.67,7.83l6.03,0l0,1.53l-8.55,0z M300.7908,96.94c3.42,0,4.5,2.25,4.5,6.3c0,4.23-1.44,6.66-4.68,6.66s-4.59-2.34-4.59-6.39s1.35-6.57,4.77-6.57z M300.7008,98.47c-1.98,0-2.7,1.62-2.7,4.95c0,3.24,0.81,4.95,2.7,4.95s2.61-1.71,2.61-5.04c0-3.24-0.63-4.86-2.61-4.86z M308.4156,109.72l0-1.53c4.23-3.78,6.21-5.67,6.21-7.65c0-1.26-0.9-2.07-2.43-2.07c-0.99,0-1.89,0.36-1.89,0.36l-0.18,1.71l-1.44,0l-0.09-2.88s1.98-0.72,3.69-0.72c2.7,0,4.32,0.9,4.32,3.42c0,2.34-1.8,4.41-5.67,7.83l6.03,0l0,1.53l-8.55,0z M319.9104,109.72l0-1.53c4.23-3.78,6.21-5.67,6.21-7.65c0-1.26-0.9-2.07-2.43-2.07c-0.99,0-1.89,0.36-1.89,0.36l-0.18,1.71l-1.44,0l-0.09-2.88s1.98-0.72,3.69-0.72c2.7,0,4.32,0.9,4.32,3.42c0,2.34-1.8,4.41-5.67,7.83l6.03,0l0,1.53l-8.55,0z"/></svg>
